<?xml version="1.0" encoding="UTF-8" standalone="no"?>
<!DOCTYPE svg PUBLIC "-//W3C//DTD SVG 1.1//EN" "http://www.w3.org/Graphics/SVG/1.1/DTD/svg11.dtd">
<svg width="100%" height="100%" viewBox="0 0 18 19" version="1.1" xmlns="http://www.w3.org/2000/svg" xmlns:xlink="http://www.w3.org/1999/xlink" xml:space="preserve" xmlns:serif="http://www.serif.com/" style="fill-rule:evenodd;clip-rule:evenodd;stroke-linejoin:round;stroke-miterlimit:2;">
    <g transform="matrix(1,0,0,1,-0.0012361,-0.000486674)">
        <g transform="matrix(0.101357,-0.0265726,0.0265726,0.101357,-775.914,-88.5529)">
            <path d="M7079.52,2816.23C7068.46,2817.64 7059.91,2827.1 7059.91,2838.54C7059.91,2849.99 7068.46,2859.44 7079.52,2860.86L7062.41,2890.51L7002.41,2890.51L6972.41,2838.54L6984.24,2818.04L7020.09,2818.04L7038.25,2786.58L7062.41,2786.58L7079.52,2816.23ZM6984.24,2818.04L6960.09,2818.04L6930.09,2766.08L6960.09,2714.12L7020.09,2714.12L7050.09,2766.08L7038.25,2786.58L7002.41,2786.58L6984.24,2818.04Z" style="fill:rgb(255,177,81);"/>
        </g>
    </g>
</svg>
